<?xml version="1.0" encoding="utf-8"?>
<svg viewBox="0 0 330 330" xmlns="http://www.w3.org/2000/svg" xmlns:bx="https://boxy-svg.com">
  <defs>
    <bx:guide x="355.98066459060806" y="246.81633927081634" angle="0"/>
  </defs>
  <g transform="matrix(1, 0, 0, 1, -2.856441, 8.367619)">
    <path d="M 75.485 168.222 L 60.376 168.722 L 67.492 138.208 L 75.485 168.222 Z M 88.314 179.167 L 67.486 89.321 L 46.657 179.167 L 88.314 179.167 Z" style="transform-box: fill-box; transform-origin: 50% 50%;" transform="matrix(0.354246, -0.935152, 0.935152, 0.354246, 0.000001, -0.00001)"/>
    <path style="stroke: rgb(0, 0, 0); transform-box: fill-box; transform-origin: 50% 50%;" transform="matrix(-0.491072, 0.0126, -0.0126, -0.491072, -550.387956, -164.164006)" d="M 833.858 252.421 A 117.25 117.25 0 1 1 600.74 246.799 L 620.357 249.364 A 97.466 97.466 0 1 0 814.14 254.038 Z" bx:shape="pie 717 262 97.466 117.25 85.314 277.449 1@7edd7726"/>
    <rect x="23.495" y="174.859" width="287.783" height="9.392" style="stroke: rgb(0, 0, 0);"/>
    <path d="M 136.314 106.649 L 121.205 107.149 L 128.321 76.635 L 136.314 106.649 Z M 149.143 117.594 L 128.315 27.748 L 107.486 117.594 L 149.143 117.594 Z" style="transform-origin: 128.314px 72.671px;" transform="matrix(0.94249, -0.334234, 0.334234, 0.94249, -0.000001, 0)"/>
    <path d="M 214.459 107.025 L 199.35 107.525 L 206.466 77.011 L 214.459 107.025 Z M 227.288 117.97 L 206.46 28.124 L 185.631 117.97 L 227.288 117.97 Z" style="transform-origin: 206.459px 73.047px;" transform="matrix(0.92833, 0.371758, -0.371758, 0.92833, 0.000001, 0.000001)"/>
    <path d="M 284.958 195.208 L 269.849 195.708 L 276.965 165.194 L 284.958 195.208 Z M 297.787 206.153 L 276.959 116.307 L 256.13 206.153 L 297.787 206.153 Z" style="transform-box: fill-box; transform-origin: 83.6819% 26.2823%;" transform="matrix(0.347159, 0.937806, -0.937806, 0.347159, -0.000003, -0.000012)"/>
  </g>
  <path d="M 28.821 242.503 C 25.846 242.284 23.68 241.454 22.323 240.012 C 20.965 238.57 20.222 236.325 20.091 233.276 C 20.073 232.455 20.064 231.643 20.064 230.839 C 20.064 230.036 20.077 229.228 20.105 228.416 C 20.133 227.604 20.184 226.787 20.259 225.966 L 26.311 225.966 C 26.237 227.426 26.19 228.854 26.172 230.25 C 26.153 231.647 26.2 233.002 26.311 234.317 C 26.348 235.138 26.572 235.777 26.981 236.233 C 27.39 236.69 28.003 237 28.821 237.164 L 28.821 242.503 Z M 32.141 242.503 L 32.141 237.164 C 32.903 236.982 33.47 236.662 33.842 236.206 C 34.214 235.75 34.437 235.12 34.511 234.317 C 34.586 233.605 34.632 232.866 34.651 232.099 C 34.669 231.332 34.665 230.566 34.636 229.799 C 34.609 229.032 34.567 228.302 34.511 227.609 C 34.456 226.477 34.139 225.573 33.563 224.898 C 32.987 224.222 32.159 223.757 31.081 223.501 L 26.953 222.543 C 25.223 222.142 23.857 221.535 22.853 220.722 C 21.849 219.91 21.128 218.86 20.691 217.573 C 20.254 216.287 20.008 214.731 19.952 212.905 C 19.933 211.92 19.929 210.943 19.938 209.976 C 19.947 209.008 19.961 208.032 19.98 207.046 C 20.091 204.016 20.835 201.78 22.211 200.338 C 23.587 198.896 25.791 198.074 28.821 197.874 L 28.821 203.213 C 28.041 203.377 27.455 203.683 27.064 204.129 C 26.674 204.577 26.441 205.211 26.367 206.033 C 26.274 207.201 26.228 208.346 26.228 209.469 C 26.228 210.592 26.274 211.737 26.367 212.905 C 26.441 214.055 26.683 214.968 27.092 215.643 C 27.501 216.319 28.199 216.766 29.184 216.985 L 32.922 217.779 C 34.837 218.199 36.371 218.824 37.524 219.654 C 38.676 220.485 39.518 221.557 40.047 222.872 C 40.578 224.186 40.88 225.765 40.954 227.609 C 40.973 228.193 40.982 228.813 40.982 229.47 C 40.982 230.127 40.973 230.78 40.954 231.428 C 40.936 232.076 40.917 232.692 40.898 233.276 C 40.768 236.325 40.025 238.574 38.667 240.025 C 37.31 241.476 35.134 242.303 32.141 242.503 Z M 34.483 214.083 C 34.539 212.622 34.576 211.235 34.595 209.921 C 34.614 208.607 34.595 207.311 34.539 206.033 C 34.521 205.211 34.316 204.573 33.926 204.116 C 33.535 203.66 32.94 203.35 32.141 203.185 L 32.141 197.874 C 35.078 198.093 37.217 198.918 38.556 200.351 C 39.894 201.784 40.62 204.025 40.731 207.073 C 40.768 208.041 40.778 209.145 40.759 210.386 C 40.74 211.628 40.703 212.86 40.647 214.083 L 34.483 214.083 Z M 66.488 233.331 C 66.414 227.49 66.377 221.644 66.377 215.793 C 66.377 209.944 66.414 204.107 66.488 198.284 L 72.876 198.284 C 72.82 202.172 72.783 206.119 72.764 210.126 C 72.745 214.133 72.75 218.139 72.778 222.146 C 72.806 226.153 72.829 230.1 72.848 233.988 C 72.848 234.883 73.038 235.581 73.42 236.082 C 73.801 236.584 74.41 236.927 75.246 237.109 L 75.246 242.503 C 72.178 242.303 69.961 241.481 68.595 240.039 C 67.228 238.597 66.526 236.361 66.488 233.331 Z M 78.565 242.503 L 78.565 237.109 C 79.402 236.927 80.006 236.58 80.378 236.069 C 80.75 235.558 80.936 234.864 80.936 233.988 C 80.955 230.1 80.978 226.153 81.006 222.146 C 81.034 218.139 81.043 214.133 81.034 210.126 C 81.025 206.119 80.992 202.172 80.936 198.284 L 87.323 198.284 C 87.398 204.107 87.44 209.944 87.449 215.793 C 87.458 221.644 87.416 227.49 87.323 233.331 C 87.286 236.361 86.584 238.597 85.218 240.039 C 83.851 241.481 81.633 242.303 78.565 242.503 Z M 126.949 242.093 L 124.02 227.061 L 121.203 203.815 L 113.756 203.815 L 113.756 198.284 L 125.275 198.284 L 128.065 212.495 L 131.439 236.507 L 138.831 236.507 L 138.831 242.093 L 126.949 242.093 Z M 113.756 242.093 L 113.756 206.252 L 118.972 206.252 L 119.641 225.363 L 120.115 242.093 L 113.756 242.093 Z M 133.559 234.07 L 132.862 215.452 L 132.416 198.284 L 138.831 198.284 L 138.831 234.07 L 133.559 234.07 Z M 180.328 242.093 L 176.172 226.322 L 175.419 226.322 L 175.419 220.763 L 176.005 220.763 C 177.269 220.763 178.185 220.517 178.753 220.024 C 179.319 219.531 179.621 218.774 179.659 217.752 C 179.714 216.474 179.756 215.246 179.785 214.068 C 179.812 212.891 179.817 211.714 179.798 210.536 C 179.779 209.359 179.733 208.132 179.659 206.854 C 179.603 205.814 179.296 205.052 178.738 204.568 C 178.18 204.084 177.279 203.842 176.033 203.842 L 175.363 203.842 L 175.363 198.284 L 176.033 198.284 C 179.51 198.284 182.02 198.969 183.563 200.338 C 185.107 201.707 185.934 203.979 186.046 207.155 C 186.102 208.543 186.134 209.779 186.144 210.865 C 186.153 211.951 186.153 213.015 186.144 214.055 C 186.134 215.096 186.102 216.227 186.046 217.45 C 185.897 221.375 184.577 223.949 182.085 225.172 L 186.966 242.093 L 180.328 242.093 Z M 165.685 242.093 L 165.685 198.284 L 172.072 198.284 L 172.072 242.093 L 165.685 242.093 Z M 212.419 242.093 L 212.419 198.284 L 218.806 198.284 L 218.806 242.093 L 212.419 242.093 Z M 253.609 242.503 C 250.634 242.284 248.468 241.454 247.111 240.012 C 245.753 238.57 245.009 236.325 244.879 233.276 C 244.861 232.455 244.851 231.643 244.851 230.839 C 244.851 230.036 244.865 229.228 244.894 228.416 C 244.921 227.604 244.972 226.787 245.047 225.966 L 251.099 225.966 C 251.025 227.426 250.978 228.854 250.96 230.25 C 250.941 231.647 250.987 233.002 251.099 234.317 C 251.136 235.138 251.359 235.777 251.768 236.233 C 252.178 236.69 252.791 237 253.609 237.164 L 253.609 242.503 Z M 256.928 242.503 L 256.928 237.164 C 257.691 236.982 258.258 236.662 258.63 236.206 C 259.002 235.75 259.225 235.12 259.299 234.317 C 259.374 233.605 259.42 232.866 259.439 232.099 C 259.457 231.332 259.453 230.566 259.425 229.799 C 259.397 229.032 259.355 228.302 259.299 227.609 C 259.243 226.477 258.927 225.573 258.351 224.898 C 257.774 224.222 256.947 223.757 255.868 223.501 L 251.741 222.543 C 250.011 222.142 248.645 221.535 247.641 220.722 C 246.636 219.91 245.916 218.86 245.479 217.573 C 245.042 216.287 244.796 214.731 244.74 212.905 C 244.721 211.92 244.717 210.943 244.726 209.976 C 244.735 209.008 244.749 208.032 244.768 207.046 C 244.879 204.016 245.623 201.78 246.999 200.338 C 248.375 198.896 250.578 198.074 253.609 197.874 L 253.609 203.213 C 252.828 203.377 252.243 203.683 251.852 204.129 C 251.462 204.577 251.229 205.211 251.155 206.033 C 251.062 207.201 251.015 208.346 251.015 209.469 C 251.015 210.592 251.062 211.737 251.155 212.905 C 251.229 214.055 251.471 214.968 251.88 215.643 C 252.289 216.319 252.986 216.766 253.972 216.985 L 257.709 217.779 C 259.625 218.199 261.159 218.824 262.311 219.654 C 263.464 220.485 264.306 221.557 264.836 222.872 C 265.366 224.186 265.668 225.765 265.742 227.609 C 265.761 228.193 265.77 228.813 265.77 229.47 C 265.77 230.127 265.761 230.78 265.742 231.428 C 265.723 232.076 265.705 232.692 265.686 233.276 C 265.556 236.325 264.812 238.574 263.455 240.025 C 262.098 241.476 259.922 242.303 256.928 242.503 Z M 259.271 214.083 C 259.327 212.622 259.364 211.235 259.383 209.921 C 259.401 208.607 259.383 207.311 259.327 206.033 C 259.308 205.211 259.104 204.573 258.713 204.116 C 258.323 203.66 257.728 203.35 256.928 203.185 L 256.928 197.874 C 259.866 198.093 262.005 198.918 263.343 200.351 C 264.682 201.784 265.407 204.025 265.519 207.073 C 265.556 208.041 265.565 209.145 265.547 210.386 C 265.528 211.628 265.491 212.86 265.435 214.083 L 259.271 214.083 Z M 291.668 242.093 L 291.668 198.284 L 298.055 198.284 L 298.055 242.093 L 291.668 242.093 Z M 301.402 242.093 L 301.402 236.534 L 309.267 236.534 L 309.267 242.093 L 301.402 242.093 Z M 301.402 222.707 L 301.402 217.149 L 308.709 217.149 L 308.709 222.707 L 301.402 222.707 Z M 301.402 203.842 L 301.402 198.284 L 309.267 198.284 L 309.267 203.842 L 301.402 203.842 Z"/>
  <text style="font-family: icon-brand; font-size: 23px; font-style: italic; font-weight: 700; letter-spacing: 3px; white-space: pre;" x="26.069" y="263.528">hookah for every day</text>
  <text style="white-space: pre; fill: rgb(51, 51, 51); font-family: Arial, sans-serif; font-size: 19.1px;" x="402.928" y="245.753"> </text>
</svg>