<?xml version="1.0" encoding="utf-8"?>
<svg viewBox="0 0 330 330" xmlns="http://www.w3.org/2000/svg" xmlns:bx="https://boxy-svg.com">
  <g transform="matrix(1, 0, 0, 1, -1.944852, 22.04165)">
    <path d="M 75.485 168.222 L 60.376 168.722 L 67.492 138.208 L 75.485 168.222 Z M 88.314 179.167 L 67.486 89.321 L 46.657 179.167 L 88.314 179.167 Z" style="transform-box: fill-box; transform-origin: 50% 50%;" transform="matrix(0.354246, -0.935152, 0.935152, 0.354246, 0.000001, -0.00001)"/>
    <path style="stroke: rgb(0, 0, 0); transform-box: fill-box; transform-origin: 50% 50%;" transform="matrix(-0.491072, 0.0126, -0.0126, -0.491072, -550.387956, -164.164006)" d="M 833.858 252.421 A 117.25 117.25 0 1 1 600.74 246.799 L 620.357 249.364 A 97.466 97.466 0 1 0 814.14 254.038 Z" bx:shape="pie 717 262 97.466 117.25 85.314 277.449 1@7edd7726"/>
    <rect x="23.495" y="174.859" width="287.783" height="9.392" style="stroke: rgb(0, 0, 0);"/>
    <path d="M 136.314 106.649 L 121.205 107.149 L 128.321 76.635 L 136.314 106.649 Z M 149.143 117.594 L 128.315 27.748 L 107.486 117.594 L 149.143 117.594 Z" style="transform-origin: 128.314px 72.671px;" transform="matrix(0.94249, -0.334234, 0.334234, 0.94249, -0.000001, 0)"/>
    <path d="M 214.459 107.025 L 199.35 107.525 L 206.466 77.011 L 214.459 107.025 Z M 227.288 117.97 L 206.46 28.124 L 185.631 117.97 L 227.288 117.97 Z" style="transform-origin: 206.459px 73.047px;" transform="matrix(0.92833, 0.371758, -0.371758, 0.92833, 0.000001, 0.000001)"/>
    <path d="M 284.958 195.208 L 269.849 195.708 L 276.965 165.194 L 284.958 195.208 Z M 297.787 206.153 L 276.959 116.307 L 256.13 206.153 L 297.787 206.153 Z" style="transform-box: fill-box; transform-origin: 83.6819% 26.2823%;" transform="matrix(0.347159, 0.937806, -0.937806, 0.347159, -0.000003, -0.000012)"/>
  </g>
</svg>