<?xml version="1.0" encoding="utf-8"?>
<svg viewBox="0 0 330 330" xmlns="http://www.w3.org/2000/svg" xmlns:bx="https://boxy-svg.com">
  <defs>
    <bx:guide x="355.98066459060806" y="246.81633927081634" angle="0"/>
  </defs>
  <g transform="matrix(1, 0, 0, 1, -1.944852, 22.04165)">
    <path d="M 75.485 168.222 L 60.376 168.722 L 67.492 138.208 L 75.485 168.222 Z M 88.314 179.167 L 67.486 89.321 L 46.657 179.167 L 88.314 179.167 Z" style="transform-box: fill-box; transform-origin: 50% 50%;" transform="matrix(0.354246, -0.935152, 0.935152, 0.354246, 0.000001, -0.00001)"/>
    <path style="stroke: rgb(0, 0, 0); transform-box: fill-box; transform-origin: 50% 50%;" transform="matrix(-0.491072, 0.0126, -0.0126, -0.491072, -550.387956, -164.164006)" d="M 833.858 252.421 A 117.25 117.25 0 1 1 600.74 246.799 L 620.357 249.364 A 97.466 97.466 0 1 0 814.14 254.038 Z" bx:shape="pie 717 262 97.466 117.25 85.314 277.449 1@7edd7726"/>
    <rect x="23.495" y="174.859" width="287.783" height="9.392" style="stroke: rgb(0, 0, 0);"/>
    <path d="M 136.314 106.649 L 121.205 107.149 L 128.321 76.635 L 136.314 106.649 Z M 149.143 117.594 L 128.315 27.748 L 107.486 117.594 L 149.143 117.594 Z" style="transform-origin: 128.314px 72.671px;" transform="matrix(0.94249, -0.334234, 0.334234, 0.94249, -0.000001, 0)"/>
    <path d="M 214.459 107.025 L 199.35 107.525 L 206.466 77.011 L 214.459 107.025 Z M 227.288 117.97 L 206.46 28.124 L 185.631 117.97 L 227.288 117.97 Z" style="transform-origin: 206.459px 73.047px;" transform="matrix(0.92833, 0.371758, -0.371758, 0.92833, 0.000001, 0.000001)"/>
    <path d="M 284.958 195.208 L 269.849 195.708 L 276.965 165.194 L 284.958 195.208 Z M 297.787 206.153 L 276.959 116.307 L 256.13 206.153 L 297.787 206.153 Z" style="transform-box: fill-box; transform-origin: 83.6819% 26.2823%;" transform="matrix(0.347159, 0.937806, -0.937806, 0.347159, -0.000003, -0.000012)"/>
  </g>
  <path d="M 27.101 253.146 Q 22.781 252.822 20.81 250.689 Q 18.839 248.556 18.65 244.047 Q 18.623 242.832 18.623 241.644 Q 18.623 240.456 18.663 239.254 Q 18.704 238.053 18.812 236.838 L 24.671 236.838 Q 24.563 238.998 24.536 241.063 Q 24.509 243.129 24.671 245.073 Q 24.725 246.288 25.319 246.963 Q 25.913 247.638 27.101 247.881 Z M 30.314 253.146 L 30.314 247.881 Q 31.421 247.611 31.961 246.936 Q 32.501 246.261 32.609 245.073 Q 32.717 244.02 32.744 242.886 Q 32.771 241.752 32.73 240.618 Q 32.69 239.484 32.609 238.458 Q 32.528 236.784 31.691 235.785 Q 30.854 234.786 29.288 234.408 L 25.292 233.463 Q 22.781 232.869 21.323 231.667 Q 19.865 230.466 19.23 228.562 Q 18.596 226.659 18.515 223.959 Q 18.488 222.501 18.501 221.07 Q 18.515 219.639 18.542 218.181 Q 18.704 213.699 20.702 211.566 Q 22.7 209.433 27.101 209.136 L 27.101 214.401 Q 25.967 214.644 25.4 215.305 Q 24.833 215.967 24.725 217.182 Q 24.59 218.91 24.59 220.57 Q 24.59 222.231 24.725 223.959 Q 24.833 225.66 25.427 226.659 Q 26.021 227.658 27.452 227.982 L 31.07 228.765 Q 33.851 229.386 35.525 230.614 Q 37.199 231.843 37.968 233.787 Q 38.738 235.731 38.846 238.458 Q 38.873 239.322 38.873 240.294 Q 38.873 241.266 38.846 242.224 Q 38.819 243.183 38.792 244.047 Q 38.603 248.556 36.632 250.702 Q 34.661 252.849 30.314 253.146 Z M 32.582 225.12 Q 32.663 222.96 32.69 221.016 Q 32.717 219.072 32.636 217.182 Q 32.609 215.967 32.042 215.292 Q 31.475 214.617 30.314 214.374 L 30.314 209.136 Q 34.58 209.46 36.524 211.579 Q 38.468 213.699 38.63 218.208 Q 38.684 219.639 38.657 221.475 Q 38.63 223.311 38.549 225.12 Z M 63.564 244.101 Q 63.456 235.461 63.456 226.807 Q 63.456 218.154 63.564 209.541 L 69.747 209.541 Q 69.666 215.292 69.639 221.218 Q 69.612 227.145 69.653 233.071 Q 69.693 238.998 69.72 244.749 Q 69.72 246.072 70.274 246.814 Q 70.827 247.557 72.042 247.827 L 72.042 253.146 Q 67.587 252.849 65.603 250.716 Q 63.618 248.583 63.564 244.101 Z M 75.255 253.146 L 75.255 247.827 Q 76.47 247.557 77.01 246.801 Q 77.55 246.045 77.55 244.749 Q 77.577 238.998 77.618 233.071 Q 77.658 227.145 77.645 221.218 Q 77.631 215.292 77.55 209.541 L 83.733 209.541 Q 83.841 218.154 83.855 226.807 Q 83.868 235.461 83.733 244.101 Q 83.679 248.583 81.695 250.716 Q 79.71 252.849 75.255 253.146 Z M 122.092 252.741 L 119.257 237.918 L 116.53 214.995 L 109.321 214.995 L 109.321 209.541 L 120.472 209.541 L 123.172 223.554 L 126.439 247.233 L 133.594 247.233 L 133.594 252.741 Z M 109.321 252.741 L 109.321 217.398 L 114.37 217.398 L 115.018 236.244 L 115.477 252.741 Z M 128.491 244.83 L 127.816 226.47 L 127.384 209.541 L 133.594 209.541 L 133.594 244.83 Z M 173.765 252.741 L 169.742 237.189 L 169.013 237.189 L 169.013 231.708 L 169.58 231.708 Q 171.416 231.708 172.24 230.979 Q 173.063 230.25 173.117 228.738 Q 173.198 226.848 173.239 225.106 Q 173.279 223.365 173.252 221.623 Q 173.225 219.882 173.117 217.992 Q 173.036 216.453 172.226 215.737 Q 171.416 215.022 169.607 215.022 L 168.959 215.022 L 168.959 209.541 L 169.607 209.541 Q 174.656 209.541 176.897 211.566 Q 179.138 213.591 179.3 218.289 Q 179.381 220.341 179.395 221.947 Q 179.408 223.554 179.395 225.093 Q 179.381 226.632 179.3 228.441 Q 179.084 234.246 175.466 236.055 L 180.191 252.741 Z M 159.59 252.741 L 159.59 209.541 L 165.773 209.541 L 165.773 252.741 Z M 204.83 252.741 L 204.83 209.541 L 211.013 209.541 L 211.013 252.741 Z M 244.704 253.146 Q 240.384 252.822 238.413 250.689 Q 236.442 248.556 236.253 244.047 Q 236.226 242.832 236.226 241.644 Q 236.226 240.456 236.267 239.254 Q 236.307 238.053 236.415 236.838 L 242.274 236.838 Q 242.166 238.998 242.139 241.063 Q 242.112 243.129 242.274 245.073 Q 242.328 246.288 242.922 246.963 Q 243.516 247.638 244.704 247.881 Z M 247.917 253.146 L 247.917 247.881 Q 249.024 247.611 249.564 246.936 Q 250.104 246.261 250.212 245.073 Q 250.32 244.02 250.347 242.886 Q 250.374 241.752 250.334 240.618 Q 250.293 239.484 250.212 238.458 Q 250.131 236.784 249.294 235.785 Q 248.457 234.786 246.891 234.408 L 242.895 233.463 Q 240.384 232.869 238.926 231.667 Q 237.468 230.466 236.834 228.562 Q 236.199 226.659 236.118 223.959 Q 236.091 222.501 236.105 221.07 Q 236.118 219.639 236.145 218.181 Q 236.307 213.699 238.305 211.566 Q 240.303 209.433 244.704 209.136 L 244.704 214.401 Q 243.57 214.644 243.003 215.305 Q 242.436 215.967 242.328 217.182 Q 242.193 218.91 242.193 220.57 Q 242.193 222.231 242.328 223.959 Q 242.436 225.66 243.03 226.659 Q 243.624 227.658 245.055 227.982 L 248.673 228.765 Q 251.454 229.386 253.128 230.614 Q 254.802 231.843 255.572 233.787 Q 256.341 235.731 256.449 238.458 Q 256.476 239.322 256.476 240.294 Q 256.476 241.266 256.449 242.224 Q 256.422 243.183 256.395 244.047 Q 256.206 248.556 254.235 250.702 Q 252.264 252.849 247.917 253.146 Z M 250.185 225.12 Q 250.266 222.96 250.293 221.016 Q 250.32 219.072 250.239 217.182 Q 250.212 215.967 249.645 215.292 Q 249.078 214.617 247.917 214.374 L 247.917 209.136 Q 252.183 209.46 254.127 211.579 Q 256.071 213.699 256.233 218.208 Q 256.287 219.639 256.26 221.475 Q 256.233 223.311 256.152 225.12 Z M 281.546 252.741 L 281.546 209.541 L 287.729 209.541 L 287.729 252.741 Z M 290.969 252.741 L 290.969 247.26 L 298.583 247.26 L 298.583 252.741 Z M 290.969 233.625 L 290.969 228.144 L 298.043 228.144 L 298.043 233.625 Z M 290.969 215.022 L 290.969 209.541 L 298.583 209.541 L 298.583 215.022 Z" transform="matrix(1.033018, 0, 0, 1.014082, 1.737232, -0.533408)"/>
</svg>